<?xml version="1.0" encoding="UTF-8"?>
<svg xmlns="http://www.w3.org/2000/svg" viewBox="0 0 82 82">
  <path d="m3.23,38.89c2.77-5.77,7.38-9.62,14.61-9.62,9.92,0,13.69,6,13.69,13.46v17.84c0,1.54.85,2.46,2.38,2.46h1.08v6c-1.46.39-3.15.77-4.77.77-3.77,0-6-1.38-7.38-3.23-2.69,2.38-5.92,3.46-9.77,3.46-7,0-11.08-4.54-11.08-11s3.85-12.84,16.84-12.84h2.15v-3.46c0-4-1.54-5.38-4.69-5.38-2.54,0-5,1.54-6.61,4.92l-6.46-3.38Zm17.77,21.77v-7.61h-2.15c-5.15,0-6.77,2-6.77,5.08,0,3.69,1.46,4.77,3.77,4.77s3.85-.85,5.15-2.23Z"/>
  <path d="m51.23,11.96v57.38h-10.54V11.96h10.54Z"/>
  <path d="m79.85,37.88h-8.08v19.54c0,3.15,1.69,4.69,4.46,4.69,1,0,2-.15,3-.46l.77,6.54c-2.15,1.08-4.69,1.77-7.69,1.77-8,0-11.08-4.54-11.08-13v-18.54l-4.46-1.38v-6.85l5.08-.39,2.69-10.69h7.23v10.92h8.08v7.84Z"/>
</svg>