<?xml version="1.0" encoding="UTF-8"?>
<svg id="Layer_1" data-name="Layer 1" xmlns="http://www.w3.org/2000/svg" viewBox="0 0 82 82">
  <defs>
	<style>
	  .cls-1 {
		fill: #63768a;
	  }

	  .cls-1, .cls-2 {
		stroke-width: 0px;
	  }

	  .cls-2 {
		fill: #efe0da;
	  }
	</style>
  </defs>
  <path class="cls-2" d="m80.97,21.1c-.21-1.75-.55-3.46-1.03-5.13-.48-1.67-1.29-3.52-2.43-5.57-1.14-2.03-2.8-3.91-4.97-5.64-2.18-1.72-4.84-2.94-8-3.65-1.74-.39-3.5-.61-5.3-.66-.49-.01-.97-.02-1.45-.02-2.8,0-5.63.27-8.49.82-2.86.55-5.76,1.4-8.69,2.55-5.18,2.04-9.9,4.57-14.16,7.6-4.26,3.03-8.09,6.5-11.51,10.43-1.86,2.14-3.45,4.4-4.78,6.79-2.62,3.87-4.71,8.05-6.26,12.57-1.07,3.11-1.79,5.89-2.16,8.34-.36,2.45-.56,4.53-.59,6.25-.02,1.55.05,3.11.21,4.69.18,1.75.5,3.47.96,5.14.46,1.67,1.24,3.54,2.35,5.6,1.11,2.05,2.74,3.95,4.9,5.7,2.15,1.75,4.81,3,7.95,3.75,1.73.41,3.49.65,5.29.73.49.02.97.03,1.45.04,2.8.04,5.63-.19,8.5-.71.07-.01.14-.03.2-.04.71-.05,1.65-.2,2.83-.47,1.44-.33,2.68-.71,3.73-1.14.45-.18.89-.38,1.33-.57.21-.08.41-.14.62-.22.21-.08.4-.17.61-.25.05,0,.11-.02.15-.02.06,0,.15.02.27.05.12.04.26.22.41.54.13.23.26.35.39.36.13,0,.21,0,.22,0,.23,0,.47-.07.7-.21.39-.23.58-.54.58-.93-.01-.08-.02-.16-.02-.23,0-.31.08-.57.25-.8,3.83-1.69,7.4-3.67,10.7-5.95,4.3-2.97,8.18-6.4,11.64-10.27,2.37-2.65,4.31-5.5,5.85-8.55,2.26-3.62,4.07-7.5,5.44-11.65,1.03-3.12,1.72-5.91,2.05-8.37.33-2.45.5-4.54.5-6.25,0-1.55-.09-3.11-.27-4.69Z"/>
  <g>
	<path class="cls-1" d="m20.9,37.62c1.44-3,3.84-5,7.6-5,5.16,0,7.12,3.12,7.12,7v9.28c0,.8.44,1.28,1.24,1.28h.56v3.12c-.76.2-1.64.4-2.48.4-1.96,0-3.12-.72-3.84-1.68-1.4,1.24-3.08,1.8-5.08,1.8-3.64,0-5.76-2.36-5.76-5.72s2-6.68,8.76-6.68h1.12v-1.8c0-2.08-.8-2.8-2.44-2.8-1.32,0-2.6.8-3.44,2.56l-3.36-1.76Zm9.24,11.32v-3.96h-1.12c-2.68,0-3.52,1.04-3.52,2.64,0,1.92.76,2.48,1.96,2.48s2-.44,2.68-1.16Z"/>
	<path class="cls-1" d="m45.85,23.63v29.83h-5.48v-29.83h5.48Z"/>
	<path class="cls-1" d="m60.73,37.1h-4.2v10.16c0,1.64.88,2.44,2.32,2.44.52,0,1.04-.08,1.56-.24l.4,3.4c-1.12.56-2.44.92-4,.92-4.16,0-5.76-2.36-5.76-6.76v-9.64l-2.32-.72v-3.56l2.64-.2,1.4-5.56h3.76v5.68h4.2v4.08Z"/>
  </g>
</svg>